<svg xmlns="http://www.w3.org/2000/svg" viewBox="0 0 200 48" fill="none">
  <!-- Icon: Stylized T formed by balustrade elements -->
  <g>
    <rect x="2" y="8" width="32" height="4" rx="1" fill="#c9a84c"/>
    <rect x="4" y="8" width="3.5" height="32" rx="1" fill="#c9a84c"/>
    <rect x="28.5" y="8" width="3.5" height="32" rx="1" fill="#c9a84c"/>
    <rect x="15.25" y="8" width="5.5" height="32" rx="1" fill="#c9a84c"/>
    <rect x="9" y="14" width="5" height="24" rx="0.5" fill="#c9a84c" opacity="0.2"/>
    <rect x="22" y="14" width="5" height="24" rx="0.5" fill="#c9a84c" opacity="0.2"/>
    <rect x="0" y="40" width="36" height="2.5" rx="1" fill="#c9a84c" opacity="0.5"/>
  </g>
  <!-- Wordmark: TIPTO (white) -->
  <g fill="#ffffff">
    <path d="M50 14h16.5v3.8H61.2V38h-4.4V17.8H50V14z"/>
    <path d="M70 14h4.4v24H70V14z"/>
    <path d="M79 14h9.2c2.4 0 4.3.7 5.6 2 1.3 1.3 2 3 2 5.2s-.7 3.9-2 5.2c-1.3 1.3-3.2 2-5.6 2H83.4V38H79V14zm9 11.2c1.2 0 2.2-.3 2.9-1 .7-.6 1-1.5 1-2.6s-.3-2-1-2.6c-.7-.7-1.7-1-2.9-1H83.4v7.2H88z"/>
    <path d="M100 14h16.5v3.8h-6.3V38h-4.4V17.8H100V14z"/>
    <path d="M128.6 38.4c-2 0-3.8-.5-5.4-1.4-1.6-1-2.8-2.3-3.7-4-.9-1.7-1.3-3.6-1.3-5.7v-2.6c0-2.1.4-4 1.3-5.7.9-1.7 2.1-3 3.7-4 1.6-1 3.4-1.4 5.4-1.4s3.8.5 5.4 1.4c1.6 1 2.8 2.3 3.7 4 .9 1.7 1.3 3.6 1.3 5.7v2.6c0 2.1-.4 4-1.3 5.7-.9 1.7-2.1 3-3.7 4-1.6 1-3.4 1.4-5.4 1.4zm0-3.8c1.1 0 2.1-.3 3-.9.9-.6 1.5-1.4 2-2.5s.8-2.3.8-3.6v-2.4c0-1.3-.3-2.5-.8-3.6s-1.2-1.9-2-2.5c-.9-.6-1.9-.9-3-.9s-2.1.3-3 .9c-.9.6-1.5 1.4-2 2.5s-.8 2.3-.8 3.6v2.4c0 1.3.3 2.5.8 3.6s1.2 1.9 2 2.5c.9.6 1.9.9 3 .9z"/>
  </g>
  <line x1="50" y1="43" x2="139" y2="43" stroke="#c9a84c" stroke-width="0.8" opacity="0.4"/>
</svg>
